<svg xmlns="http://www.w3.org/2000/svg" viewBox="0 0 1200 610" width="1200" height="610" role="img" aria-labelledby="title desc">
  <title id="title">HEXYZ FORCE 한글화 진행 상황</title>
  <desc id="desc">2026년 9월 12일 기준 스토리 대사와 리소스 처리 진행률</desc>
  <defs>
    <linearGradient id="blue" x1="0" x2="1"><stop stop-color="#3686f4"/><stop offset="1" stop-color="#a56be8"/></linearGradient>
    <linearGradient id="green" x1="0" x2="1"><stop stop-color="#248d42"/><stop offset="1" stop-color="#45be60"/></linearGradient>
    <linearGradient id="yellow" x1="0" x2="1"><stop stop-color="#c99616"/><stop offset="1" stop-color="#e4b42e"/></linearGradient>
    <linearGradient id="orange" x1="0" x2="1"><stop stop-color="#ef843c"/><stop offset="1" stop-color="#f59a51"/></linearGradient>
  </defs>
  <rect x="1" y="1" width="1198" height="608" rx="24" fill="#0d1117" stroke="#303844" stroke-width="2"/>
  <g font-family="Pretendard, Noto Sans KR, Arial, sans-serif">
    <text x="70" y="62" fill="#f1f3f7" font-size="30" font-weight="800">HEXYZ FORCE 한글화 진행 상황</text>
    <text x="70" y="92" fill="#8e98a7" font-size="16">2026-09-12 23:59 KST 기준 · 일본판 양쪽 루트</text>

    <g font-size="18" font-weight="700" fill="#c9ced8">
      <text x="70" y="135">스토리 대사 번역</text><text x="1130" y="135" text-anchor="end" fill="#edf0f5">19,446 / 23,993 · 81.05%</text>
      <rect x="70" y="151" width="1060" height="22" rx="11" fill="#252b33"/><rect x="70" y="151" width="859" height="22" rx="11" fill="url(#blue)"/>

      <text x="70" y="210">세실리아 루트 대사</text><text x="1130" y="210" text-anchor="end" fill="#edf0f5">11,821 / 11,821 · 100%</text>
      <rect x="70" y="226" width="1060" height="22" rx="11" fill="#252b33"/><rect x="70" y="226" width="1060" height="22" rx="11" fill="url(#green)"/>

      <text x="70" y="285">레반트 루트 대사</text><text x="1130" y="285" text-anchor="end" fill="#edf0f5">7,625 / 12,172 · 62.64%</text>
      <rect x="70" y="301" width="1060" height="22" rx="11" fill="#252b33"/><rect x="70" y="301" width="664" height="22" rx="11" fill="url(#yellow)"/>

      <text x="70" y="360">스토리 대사 패치 반영</text><text x="1130" y="360" text-anchor="end" fill="#edf0f5">11,821 / 23,993 · 49.27%</text>
      <rect x="70" y="376" width="1060" height="22" rx="11" fill="#252b33"/><rect x="70" y="376" width="522" height="22" rx="11" fill="url(#orange)"/>

      <text x="70" y="435">한국어 이미지 리소스</text><text x="1130" y="435" text-anchor="end" fill="#edf0f5">21 / 21 · 정적 검증 완료</text>
      <rect x="70" y="451" width="1060" height="22" rx="11" fill="#252b33"/><rect x="70" y="451" width="1060" height="22" rx="11" fill="url(#green)"/>

      <text x="70" y="510">영상 파일 처리</text><text x="1130" y="510" text-anchor="end" fill="#edf0f5">18 / 18 · 자막 14편 포함</text>
      <rect x="70" y="526" width="1060" height="22" rx="11" fill="#252b33"/><rect x="70" y="526" width="1060" height="22" rx="11" fill="url(#green)"/>
    </g>
    <text x="70" y="582" fill="#7f8896" font-size="13">※ 아이템·스킬·메뉴 등 공통 텍스트는 스토리 대사와 별도로 집계합니다. 정적 검증 수치이며 플레이 QA는 별도입니다.</text>
  </g>
</svg>